<svg xmlns="http://www.w3.org/2000/svg" xmlns:xlink="http://www.w3.org/1999/xlink" fill="none" version="1.1" width="1275" height="393" viewBox="0 0 1275 393"><path d="M218.76196350097655,277.0133143188476C217.54475350097655,287.9948543188476,219.09414350097657,299.10648431884766,223.26901350097657,309.33618431884764C184.21122350097656,318.50550431884767,143.18912550097656,306.82454431884764,114.82024750097656,278.4556943188477C69.55586850097656,233.19130431884764,69.55586850097656,159.80326831884764,114.82024750097656,114.53889431884765C160.08461750097655,69.27451931884765,233.47268350097656,69.27451931884765,278.73706350097655,114.53889431884765C307.10591350097656,142.90776831884767,318.7868535009766,183.92986431884765,309.61753350097655,222.98766431884766C299.38781350097656,218.81278431884766,288.2761735009766,217.26340431884765,277.29467350097656,218.48061431884764C277.0595435009766,218.50667431884764,276.82455350097655,218.53400431884765,276.58973350097654,218.56256431884765C261.8959035009766,220.35080431884765,248.22461350097657,227.00972431884765,237.75784350097655,237.47649431884764C227.29107350097655,247.94326431884767,220.63217350097656,261.6145543188477,218.84393350097656,276.30838431884763C218.81537350097656,276.54320431884764,218.78822350097656,276.77820431884766,218.76196350097655,277.0133143188476ZM279.5691335009766,196.49729431884765Q279.5691335009766,207.50827431884767,276.7606935009766,217.93764431884765C267.39657350097656,208.58947431884764,254.12787350097656,204.28105431884765,241.05819350097656,206.34482431884766Q228.64679350097657,191.37227431884764,211.46594350097655,181.09611431884764Q190.06463350097658,168.29562331884767,165.74365950097655,165.46231031884764Q168.57697250097658,189.78328431884768,181.37747350097658,211.18459431884764Q191.65364350097656,228.36542431884766,206.62620350097654,240.77683431884765C204.56240350097656,253.84650431884765,208.87085350097658,267.11519431884767,218.21899350097655,276.4793343188477Q207.78959350097657,279.28777431884765,196.77864350097656,279.28777431884765Q179.63217150097657,279.28777431884765,163.89614850097655,272.47757431884764Q149.40339650097656,266.2054543188476,138.23693450097656,255.03900431884765Q127.07047650097655,243.87253431884767,120.79834750097656,229.37976431884766Q113.98815950097656,213.64376431884764,113.98815950097656,196.49729431884765Q113.98815950097656,179.35080731884767,120.79834750097656,163.61479231884766Q127.07047650097655,149.12203931884767,138.23693450097656,137.95558131884766Q149.40339650097656,126.78912731884765,163.89614850097655,120.51699431884765Q179.63217150097657,113.70681031884766,196.77864350097656,113.70681331884765Q213.92511350097655,113.70679431884766,229.66114350097655,120.51699431884765Q244.15390350097655,126.78913831884765,255.32035350097655,137.95558531884765Q266.4868035009765,149.12203931884767,272.75895350097653,163.61479231884766Q279.5691335009766,179.35083031884767,279.5691335009766,196.49729431884765Z" fill-rule="evenodd" fill="#5A82E6" fill-opacity="1"/><path d="M290.2494388759766,257.93643011572266C289.00318887597655,254.65162711572265,287.07423787597656,251.66859531572265,284.58997387597657,249.18433571572265C274.8904688759766,239.48482921572267,259.16446087597654,239.48482921572267,249.46495337597656,249.18433571572265C239.76544567597657,258.88384211572264,239.76544567597657,274.6098521157227,249.46495337597656,284.3093531157227C251.94921307597656,286.79361711572267,254.93224887597657,288.72256811572265,258.21704887597656,289.96881511572263L312.68998687597656,312.40937011572265L290.2494388759766,257.93643011572266Z" fill-rule="evenodd" fill="#F9B130" fill-opacity="1"/><path d="M383.8635923503906,128.07501620703124C382.91058212039064,128.19092720703125,382.3546569403906,128.73183420703126,382.2355041503906,129.65910720703124L382.2355041503906,150.71592720703126C382.3546266503906,151.52728620703124,382.9105518503906,151.91365420703124,383.8635923503906,151.91365420703124L401.4150121503906,151.91365420703124C409.1582791503906,152.18410520703125,415.5911671503906,149.78865420703124,420.63420915039063,144.76592220703125L433.3014261503906,132.05455820703125C435.4854431503906,129.81364820703124,437.94738415039063,128.46137420703124,440.6476101503906,128.07500820703126L510.9327541503906,128.07500820703126C512.7196641503906,128.34546320703126,514.0697741503907,129.38864720703125,515.0227941503906,131.24319120703126L528.0870841503906,144.76591520703124C531.8991741503906,148.74546420703126,536.3862741503906,150.71591220703124,541.5881941503906,150.71591220703124L566.5255141503906,150.71591220703124C567.3594341503906,150.60000220703125,567.7565041503906,150.05909320703125,567.7565041503906,149.13182020703124L567.7565041503906,128.84773220703124C567.7565041503906,127.80454820703125,567.3593741503906,127.10909320703125,566.5255141503906,126.87727720703126L559.5764341503906,126.87727720703126C555.7643441503906,127.14773020703124,552.6273241503907,125.95000420703124,550.1653641503906,123.28409420703125L533.8051741503906,105.39545750703125C532.9712941503906,104.46818570703125,532.0182841503906,103.92727530703125,530.9461241503907,103.81136730703125L420.63420915039063,103.81136730703125C419.5620801503906,103.92727530703125,418.05311215039063,105.00909610703125,416.1470951503906,106.97954800703125L402.2489011503906,122.47272720703126C398.9927541503906,126.18181420703125,395.2998051503906,128.03636520703125,391.20977305039065,128.03636520703125L383.8635923503906,128.03636520703125L383.8635923503906,128.07501620703124ZM564.0238341503906,160.29774520703126C563.9046941503906,159.25455820703127,563.1899141503907,158.71365320703126,561.9986841503907,158.71365320703126L387.51682325039064,158.71365320703126L385.88873525039065,160.29774520703126L385.88873525039065,180.58184020703123C386.0078577503906,181.50910220703125,386.56378315039063,182.05002620703124,387.51682325039064,182.16593120703124L422.6593861503906,182.16593120703124L457.4048611503906,182.16593120703124C458.3578721503906,182.16593120703124,458.9137951503906,182.55228420703125,459.0329441503906,183.36366320703127L459.0329441503906,192.09547420703126C458.9138261503906,193.40911120703123,458.3579021503906,194.06591820703125,457.4048611503906,194.06591820703125L386.7226533503906,194.06591820703125C385.76964335039065,194.18182420703124,385.2137181503906,194.72273220703124,385.0945651503906,195.65000920703125L385.0945651503906,215.12274220703125C385.2136876503906,215.93411220703126,385.76961275039065,216.32047220703123,386.7226533503906,216.32047220703123L458.2387771503906,216.32047220703123C459.0726621503906,216.43638220703124,459.4697491503906,216.97729220703127,459.4697491503906,217.90456220703123L459.4697491503906,265.6204822070313C459.4697491503906,266.54776220703127,459.0726621503906,267.0886722070312,458.2387771503906,267.2045722070312L383.8635923503906,267.2045722070312C383.18854469039064,267.32048220703126,382.91058212039064,267.86137220703125,383.0297046303906,268.7886622070313L383.0297046303906,287.25683220703127C383.1488270803906,288.06819220703125,383.70475225039064,288.4545722070312,384.65779285039065,288.4545722070312L566.4858241503906,288.4545722070312C567.3197441503906,288.4545722070312,567.7168141503906,288.0682022070313,567.7168141503906,287.25683220703127L567.7168141503906,268.7886622070313C567.7168141503906,267.86137220703125,567.3196841503907,267.32048220703126,566.4858241503906,267.2045722070312L491.3164741503906,267.2045722070312C490.36346415039066,267.0886722070312,489.80754415039064,266.54776220703127,489.6883841503906,265.6204822070313L489.6883841503906,217.13183220703127C489.8075141503906,216.20455220703127,490.3634341503906,215.66365220703125,491.3164741503906,215.54774220703126L561.9986841503907,215.54774220703126C563.2296641503906,215.54774220703126,563.9046941503906,215.16138220703124,564.0238341503906,214.35001220703126L564.0238341503906,194.87728120703125C563.9046941503906,193.95000420703127,563.1899141503907,193.40909620703127,561.9986841503907,193.29319020703124L492.1503641503906,193.29319020703124C491.19735415039065,193.02273520703125,490.6414241503906,192.36591320703127,490.5222741503906,191.32273820703125L490.5222741503906,182.97728720703125C490.6413941503906,182.05001020703125,491.19731415039064,181.50910220703125,492.1503641503906,181.39319620703125L561.9986841503907,181.39319620703125C563.2296641503906,181.27727520703127,563.9046941503906,180.73637420703125,564.0238341503906,179.80910520703125L564.0238341503906,160.29774520703126ZM561.9986841503907,226.28866220703125C562.2766741503906,224.55002220703125,561.7206841503906,223.62275220703125,560.3706041503906,223.50683220703127L533.4080941503906,223.50683220703127C531.8991741503906,223.62274220703125,531.1049641503906,224.31820220703125,530.9461241503907,225.47729220703127L530.1122241503906,229.45682220703125C529.2783541503907,233.55229220703126,527.1340441503907,235.67727220703125,523.5602241503907,235.83183220703125L504.3410341503906,235.83183220703125C503.38801415039063,235.94774220703124,502.8320941503906,236.48865220703124,502.71293415039065,237.41592220703126L502.71293415039065,257.27501220703124C502.83206415039064,258.58865220703126,503.3879941503906,259.24545220703124,504.3410341503906,259.24545220703124L530.9064341503906,259.24545220703124C537.5775741503907,259.3613622070312,543.5736541503907,258.2022722070312,548.8946641503907,255.65228220703125C554.2156641503907,253.14090220703125,557.6306441503906,248.62045220703126,559.0999341503906,242.12954220703125L561.9986841503907,226.28866220703125ZM447.1996231503906,237.41592220703126C447.0804981503906,236.48865220703124,446.5245741503906,235.94774220703124,445.57152915039063,235.83183220703125L425.95521515039064,235.83183220703125C422.26226815039064,235.71592220703124,419.84000815039064,234.09320220703125,418.60903515039064,231.07956220703124L416.98094915039064,226.32729220703123C416.58386215039064,225.28411220703126,416.02793915039064,224.58865220703126,415.3528591503906,224.35684220703126L388.7874536503906,224.35684220703126C387.4373579503906,224.62729220703125,386.7622799503906,225.28412220703126,386.7622799503906,226.32729220703123L390.45522885039065,243.82956220703124C393.4334121503906,253.10229220703124,400.8193091503906,257.62274220703125,412.5334871503906,257.35228220703124L445.6111831503906,257.35228220703124C446.5641941503906,257.23637220703125,447.1201171503906,256.69548220703126,447.23927315039066,255.76819220703126L447.23927315039066,237.41592220703126L447.1996231503906,237.41592220703126ZM669.0544141503906,105.43410940703124C667.4263341503906,105.70456290703125,666.4733541503906,106.47729300703125,666.1953741503906,107.82956360703125L666.1953741503906,170.22729520703126C665.9173541503906,171.15455620703125,665.2423141503906,171.69546520703125,664.1702241503906,171.81137820703125L590.2318741503907,171.81137820703125C589.2788241503906,171.92728420703125,588.7229041503906,172.62274120703125,588.6037741503906,173.78183020703125L588.6037741503906,196.42273720703125C588.7229041503906,197.35002120703126,589.2788241503906,197.89092220703125,590.2318741503907,198.00682820703125L664.1702241503906,198.00682820703125C665.2423741503906,198.27728320703125,665.9570941503906,199.05001020703125,666.1953741503906,200.40228320703125L666.1953741503906,285.28637220703126C666.4733541503906,286.60000220703125,667.1484041503907,287.41137220703126,668.2205241503907,287.68182220703125L695.5800741503906,287.68182220703125C696.6522541503906,287.56592220703124,697.3669741503907,287.02501220703124,697.6052241503905,286.09773220703124L697.6052241503905,200.44092520703126C697.4860841503906,199.12728920703125,698.4391141503907,198.31592520703126,700.4642641503906,198.04547920703124L773.6084641503905,198.04547920703124C774.5615241503906,197.92957320703124,775.1174341503906,197.38866420703124,775.2365741503907,196.46138720703124L775.2365741503907,173.82047320703126C775.1174341503906,172.62274120703125,774.5615241503906,171.96592720703126,773.6084641503905,171.85001420703125L699.2333041503906,171.85001420703125C698.2802741503906,171.73410820703126,697.7243341503906,171.19319920703126,697.6052241503905,170.26592220703125L697.6052241503905,107.79092640703125C697.7243341503906,106.20683600703126,697.0493141503906,105.39547230703126,695.5800741503906,105.39547230703126L669.0544141503906,105.39547230703126L669.0544141503906,105.43410940703124ZM896.4685341503906,127.65001520703125C896.0713841503906,127.76592620703124,895.9126241503906,128.30683320703125,896.0713841503906,129.23410420703124L896.0713841503906,147.93410520703125C895.9523041503907,148.97728720703125,896.6273541503906,149.67274520703126,898.0965241503907,149.90456020703124L913.2257341503906,149.90456020703124C917.9908141503906,150.56137820703125,921.8029441503907,149.36365520703126,924.6619541503907,146.31137820703125L928.3548841503906,140.74773820703126C928.7519841503906,139.82046920703124,929.4270341503906,139.27956020703124,930.3800341503907,139.16364620703126L981.0487941503907,139.16364620703126C982.0018641503906,138.89319620703125,982.5578341503906,138.23637820703124,982.6769141503906,137.19319120703125L982.6769141503906,116.52273720703126C982.3989541503906,115.59546520703125,981.6047641503907,115.05455620703125,980.2149341503906,114.93864720703125L934.8671541503907,114.93864720703125C934.1921741503907,114.82273920703125,933.9140941503906,114.28182920703125,934.0332341503906,113.35455720703125L934.8671541503907,105.00910350703126C934.9862941503907,104.08183170703126,934.7480741503906,103.54092126703125,934.0332341503906,103.42501324703125L909.9297741503906,103.42501324703125C908.9767741503906,103.30910515703125,908.4208041503906,103.54092126703125,908.3017241503907,104.23637700703125L905.4426541503906,121.31365420703125C905.1646441503906,124.36592820703125,903.6557341503906,126.22047220703125,900.9555341503906,126.87729120703125L896.4685341503906,127.65001520703125ZM831.1073641503906,194.41366620703127C831.3853741503906,195.88185120703125,832.0603941503906,196.65457920703125,833.1325041503906,196.80911220703126L853.9797941503906,196.80911220703126C854.9328341503906,196.42275220703124,855.3298941503906,195.61138120703123,855.2107541503906,194.41366620703127L855.2107541503906,151.87501520703125C855.6078841503906,150.29092420703125,856.4417441503906,149.47955720703123,857.6726941503906,149.47955720703123L889.1223141503906,149.47955720703123C890.0753741503906,149.36364720703125,890.6313141503906,148.82273820703125,890.7503941503905,147.89546620703123L890.7503941503905,127.61137820703125C890.4724441503906,126.56819320703124,889.6782541503906,125.87273820703125,888.2884541503906,125.64092220703125L885.0322841503906,125.64092220703125C884.0792241503907,125.37046820703125,883.5232841503906,124.71365020703125,883.4042041503906,123.67046520703124L884.2381241503906,108.56364920703125C883.9601441503906,107.25001240703125,883.1659841503906,106.43864850703125,881.7761841503907,106.16819500703124L869.1089441503907,106.16819500703124C868.0368041503907,105.89774180703125,867.3220541503906,106.43864850703125,867.0838041503906,107.75228550703125L865.0586541503906,123.67046520703124C864.9395441503907,125.40910520703125,864.3836341503907,126.06592320703125,863.4305741503906,125.64092220703125L856.8786041503906,125.64092220703125C855.9255641503906,125.37046820703125,855.3696641503907,124.71365020703125,855.2504841503905,123.67046520703124L855.2504841503905,104.97046610703126C854.9725341503906,103.65682940703125,854.2974841503906,102.84546556703125,853.2253741503906,102.57501220703125L833.2120041503906,102.57501220703125C832.1398341503907,102.69092026703125,831.4251141503906,103.23183065703125,831.1868541503907,104.15910240703126L831.1868541503907,123.63182820703125C831.1868541503907,124.67501220703124,830.7897641503906,125.37046820703125,829.9559041503906,125.60228520703126L823.0068041503906,125.60228520703126C822.0537441503907,125.33183120703126,821.4978341503906,124.67501220703124,821.3787241503906,123.63182820703125L819.3535741503906,107.71364830703125C819.6315641503907,106.78637650703125,818.9564541503906,106.24546600703125,817.3284341503906,106.12955780703125L803.4302041503906,106.12955780703125C802.4772041503907,106.01364970703125,801.9212641503907,106.24546600703125,801.8021241503907,106.94092180703124L803.4302041503906,123.63182820703125C803.3110941503905,124.67501220703124,802.7551841503906,125.37046820703125,801.8021241503907,125.60228520703126L797.7120941503906,125.60228520703126C796.7590641503906,125.87273820703125,796.2031541503907,126.52955620703125,796.0840141503907,127.57274020703125L796.0840141503907,147.04547120703126C796.3620341503906,148.51364920703125,797.0370441503906,149.28637720703125,798.1091641503906,149.44092920703125L829.1617141503907,149.44092920703125C830.2338541503907,149.71138020703125,830.9486041503906,150.48411220703125,831.1868541503907,151.83638420703124L831.1868541503907,194.41366620703127L831.1073641503906,194.41366620703127ZM861.3260241503906,157.43865220703125C859.9758941503906,157.97956120703125,859.4199841503906,159.02274320703125,859.6979041503906,160.60683420703126L866.2498741503906,183.67274520703126C866.8058141503907,189.35229520703126,869.2280841503906,192.67501020703125,873.5961041503906,193.60228720703125L891.5843241503906,193.60228720703125C893.3712141503906,193.48638120703123,894.3242541503906,192.94548020703127,894.4433941503906,192.01819620703125L894.4433941503906,179.30683120703125C894.3242541503906,177.83864620703125,893.7683441503907,176.91136120703123,892.8152741503907,176.52500920703125L889.5591141503905,176.52500920703125C886.5809641503906,176.79546320703125,884.6749241503906,174.67046320703125,883.8410041503906,170.15001720703125L880.9819641503907,159.79546720703127C880.4259941503906,158.48183020703124,879.3538541503906,157.67047120703126,877.7257641503907,157.40000920703125L861.3260241503906,157.40000920703125L861.3260241503906,157.43865220703125ZM813.9530041503906,193.64093020703126C819.7902541503906,193.25457720703125,823.0861241503906,189.66139220703127,823.7611341503906,182.90003220703124L828.2483241503905,159.44775420703127C828.5262741503907,158.13411720703124,828.2483241503905,157.20684420703125,827.4143641503906,156.66593920703124L809.0290541503906,156.66593920703124C807.5200841503906,157.05230320703126,806.7259241503906,157.86366320703127,806.5671041503906,159.06139720703123L804.9389941503906,170.18867520703125C804.9389941503906,172.42958020703125,804.1051041503906,174.01366420703124,802.4770841503906,174.94094820703125L799.2209141503906,176.52503920703126C797.7119441503907,177.06594120703124,796.9177541503907,177.99321020703127,796.7589441503906,179.30684620703124L796.7589441503906,191.24548320703127C796.4809541503906,192.44321420703125,796.8780541503907,193.21592720703126,797.9898941503907,193.64093020703126L813.9530041503906,193.64093020703126ZM862.1598841503906,207.93638220703124C862.0407441503907,208.86367220703124,861.4848041503906,209.40457220703126,860.5317641503907,209.52048220703125L823.7611341503906,209.52048220703125C822.8081041503906,209.40457220703126,822.2521641503906,208.86367220703124,822.1330541503906,207.93638220703124L822.1330541503906,203.18410220703123C822.1330541503906,202.25682820703125,821.7359341503907,201.71591920703125,820.9021041503906,201.60001420703125L802.5167541503906,201.60001420703125C801.5637241503906,201.71591920703125,801.0077841503906,202.25682820703125,800.8886741503907,203.18410220703123L800.8886741503907,207.93637220703124C801.0077841503906,208.74773220703125,800.7695341503907,209.25001220703126,800.0547441503907,209.52046220703124L796.7985841503906,210.71820220703125C796.1235341503907,211.10455220703125,795.8455241503907,211.64548220703125,795.9646341503906,212.30228220703125L795.9646341503906,230.57728220703126C795.8455241503907,231.50456220703126,796.0838041503906,232.04547220703125,796.7985841503906,232.16137220703126L799.2605241503907,232.16137220703126C800.2135341503906,232.27728220703125,800.7695041503906,232.81819220703125,800.8886141503906,233.74547220703124L800.8886141503906,250.05002220703125C801.0077241503907,251.36365220703124,801.5636641503907,252.44546220703126,802.5166941503905,253.21820220703125L825.7862241503906,268.32501220703125L824.5552641503906,269.52275220703126C822.7683441503907,270.72047220703126,820.6240241503906,271.30002220703125,818.0032641503906,271.30002220703125L797.1560041503906,271.30002220703125C796.3220841503907,271.41592220703126,795.9250141503906,271.95683220703125,795.9250141503906,272.88411220703125L795.9250141503906,287.17956220703127C795.9250141503906,288.37729220703125,796.3221441503906,289.03410220703125,797.1560041503906,289.15001220703124L827.3746341503906,289.15001220703124C829.9556841503907,288.7636522070312,832.4177241503905,287.83638220703125,834.7208541503906,286.36819220703126L844.5289941503906,279.22046220703123C845.2040441503907,278.83410220703126,845.8791241503907,278.83410220703126,846.5541341503906,279.22046220703123L859.6184341503906,287.17956220703127C861.1274141503907,288.37729220703125,862.8746041503906,289.03410220703125,864.9394241503906,289.15001220703124L890.6709241503906,289.15001220703124C891.7430741503906,288.7636522070312,892.4578241503907,287.83638220703125,892.6960741503906,286.36819220703126L892.6960741503906,272.84546220703123C892.4180341503907,271.91818220703124,891.7430141503906,271.37727220703124,890.6709241503906,271.2613722070313L874.3107941503906,271.2613722070313C873.3577241503906,271.14546220703124,872.2856441503907,270.87501220703126,871.0546241503906,270.45001220703125L864.1055041503906,266.66365220703125C863.7084041503906,266.39319220703123,863.7084041503906,266.12274220703125,864.1055041503906,265.85229220703127L879.6317741503906,253.91365220703125C883.0467841503906,251.24774220703125,884.7940041503906,247.80910220703126,884.9527541503905,243.55911220703126L884.9527541503905,233.62956220703126C885.2308041503907,232.70228220703126,885.9058241503906,232.16137220703126,886.9779041503906,232.04547220703125L890.6708641503906,232.04547220703125C891.7430141503906,231.92956220703124,892.4577941503906,231.38865220703124,892.6960141503906,230.46138220703125L892.6960141503906,211.37502220703124C892.4180041503906,210.33184220703123,891.7429541503907,209.63638220703126,890.6708641503906,209.40457220703126L886.9779041503906,209.40457220703126C885.9057641503906,209.28867220703125,885.1910741503907,208.74776220703126,884.9527541503905,207.82049220703124L884.9527541503905,201.44548020703127C884.8336841503906,200.78866620703127,884.2777441503906,200.51820420703126,883.3246741503906,200.63411720703124L863.3113441503906,200.63411720703124C862.4774141503906,200.75002320703123,862.0803541503906,201.29093120703124,862.0803541503906,202.21820820703124L862.0803541503906,207.93638220703124L862.1598841503906,207.93638220703124ZM822.0933841503906,233.78410220703125C822.2124941503906,232.85682220703126,822.7684041503906,232.31592220703126,823.7214641503906,232.20003220703126L861.3260241503906,232.20003220703126C862.0010341503906,232.31592220703126,862.2790541503906,232.85682220703126,862.1599141503907,233.78410220703125L862.1599141503907,238.53637220703126C862.2790541503906,239.73411220703125,862.0408041503906,240.50683220703124,861.3260241503906,240.93184220703125L845.7997141503906,254.06820220703125C844.5687541503906,254.87956220703126,843.3377941503907,254.87956220703126,842.1068141503906,254.06820220703125L824.5553941503906,243.71365220703126C822.9273041503907,242.67047220703125,822.0934441503906,241.20228220703126,822.0934441503906,239.34775220703125L822.0933841503906,233.78410220703125ZM938.5602141503906,192.82955920703125C938.2821941503906,193.21591220703124,937.8851641503907,193.21591220703124,937.3291941503907,192.82955920703125L923.8282141503906,162.22955320703124C923.5501441503907,161.30228420703125,922.7560141503906,160.76137520703125,921.3662441503906,160.64546620703123L900.1218541503906,160.64546620703123C898.7717541503906,160.76137520703125,898.0967141503907,161.30228420703125,898.0967141503907,162.22955320703124L924.6620741503906,230.61592220703125C924.7811541503906,231.15681220703124,924.7811541503906,231.65910220703125,924.6620741503906,232.20001220703125L913.2258041503907,267.59091220703124C912.6699541503906,269.5613522070313,911.5977441503907,270.56592220703124,909.9696341503907,270.56592220703124L898.1363841503907,270.56592220703124C897.1833141503906,270.68182220703125,896.6274141503907,271.22273220703124,896.5083341503906,272.15001220703124L896.5083341503906,287.2568222070313C896.6274141503907,288.45456220703124,897.1833141503906,289.1113622070312,898.1363841503907,289.22726220703123L924.7017541503906,289.22726220703123C927.6799641503907,289.49772220703125,929.8639841503906,288.57046220703126,931.2537541503906,286.4454522070313L938.6000041503906,272.9227122070313C939.4338641503906,272.5363622070313,940.1089141503907,272.5363622070313,940.6251541503906,272.9227122070313L944.7151841503907,282.07953220703126C947.0182841503906,286.4454522070313,950.5920741503907,288.8408922070313,955.3571441503906,289.22725220703126L980.2944641503906,289.22725220703126C981.2474641503907,289.1113622070312,981.8034341503907,288.4158922070312,981.9225741503906,287.2568022070312L981.9225741503906,271.3386222070312C981.8034341503907,270.68182220703125,981.2474641503907,270.3340922070313,980.2944641503906,270.3340922070313L970.8833941503906,270.3340922070313C967.1905241503906,269.67727220703125,964.7682841503906,267.43637220703124,963.5372041503906,263.57272220703123L952.1009841503907,236.52727220703125C951.7038241503906,235.21364220703126,951.7038241503906,234.01590220703125,952.1009841503907,232.93410220703126L979.0634441503906,153.42045220703125C980.0164441503906,152.10681520703125,979.7384941503906,151.17954620703125,978.2295241503906,150.63863720703125L953.2922041503906,150.63863720703125C952.2200641503906,150.52272820703126,951.5052841503906,150.90909220703125,951.2670641503906,151.83636520703124L938.5602141503906,192.82955920703125ZM1121.4206841503906,287.68184220703125C1121.5398241503906,288.87958220703126,1122.0958541503906,289.53637220703126,1123.0487941503907,289.65228220703125L1179.4357641503907,289.65228220703125C1189.2439241503907,288.8409222070312,1194.1282041503905,283.16137220703126,1194.1282041503905,272.57501220703125L1194.1282041503905,227.06138220703124C1194.0090641503907,226.13409220703124,1193.4530941503906,225.59319220703125,1192.5001541503907,225.47729220703127L1171.2557641503906,225.47729220703127C1169.9056041503907,225.36138220703126,1169.2305641503906,224.82047220703123,1169.2305641503906,223.89319220703123L1169.2305641503906,212.76592220703125C1169.2305641503906,211.83864220703126,1169.9056041503907,211.29773220703123,1171.2557641503906,211.18183220703125L1190.8719741503905,211.18183220703125C1191.8249841503907,210.91137220703126,1192.3810141503905,210.25454220703125,1192.5001541503907,209.21138220703125L1192.5001541503907,189.35229520703126C1192.3810141503905,188.42501820703126,1191.8249841503907,187.88410920703126,1190.8719741503905,187.76820420703126L1171.2557641503906,187.76820420703126C1169.9056041503907,187.65229820703127,1169.2305641503906,187.11138920703127,1169.2305641503906,186.18411220703126L1169.2305641503906,177.02729820703127C1169.2305641503906,176.10002120703126,1169.9056041503907,175.55911220703126,1171.2557641503906,175.44320720703126L1178.6019641503906,175.44320720703126C1187.3379841503906,175.71366120703124,1191.9441241503905,171.73412320703125,1192.5001541503907,163.50457020703124L1192.5001541503907,105.43410940703124C1192.3810141503905,104.50683770703125,1191.8249841503907,103.96592720703126,1190.8719741503905,103.85001920703125L1086.6753841503905,103.85001920703125C1085.7223841503906,103.96592720703126,1085.1663541503906,104.50683770703125,1085.0472141503906,105.43410940703124L1085.0472141503906,264.03637220703126C1084.7692541503907,264.96365220703126,1083.9751241503905,265.50456220703126,1082.5852941503906,265.62047220703124L1075.2391041503906,265.62047220703124C1074.2861041503907,265.89091220703125,1073.7301941503906,266.54774220703126,1073.6109941503905,267.59091220703124L1073.6109941503905,288.84091220703124C1073.7301941503906,289.76819220703123,1074.2861041503907,290.3091022070313,1075.2391041503906,290.42500220703124L1100.1764241503906,290.42500220703124C1109.0315841503907,290.3091022070313,1113.6775241503906,286.0591022070313,1114.0746141503905,277.7136422070313L1114.0746141503905,176.98865520703123C1114.1937541503908,176.06137820703125,1114.7497241503906,175.52046920703125,1115.7027241503906,175.40456420703126L1138.1780741503908,175.40456420703126C1139.1310741503908,175.52046920703125,1139.6870441503906,176.06137820703125,1139.8061841503907,176.98865520703123L1139.8061841503907,186.14546920703125C1139.6870441503906,187.07274620703123,1139.1310741503908,187.61365520703123,1138.1780741503908,187.72956120703125L1122.2546741503907,187.72956120703125C1121.3017241503908,187.84546620703125,1120.7456941503906,188.38636820703124,1120.6265541503906,189.31365220703125L1120.6265541503906,209.17273220703123C1120.7456941503906,210.21592220703127,1121.3017241503908,210.91137220703126,1122.2546741503907,211.14319220703123L1138.1780741503908,211.14319220703123C1139.1310741503908,211.25908220703127,1139.6870441503906,211.79999220703127,1139.8061841503907,212.72727220703126L1139.8061841503907,223.85455220703125C1139.6870441503906,224.78183220703124,1139.1310741503908,225.32274220703124,1138.1780741503908,225.43864220703125L1123.0489241503906,225.43864220703125C1122.0959741503907,225.55455220703124,1121.5399441503905,226.09545220703126,1121.4208041503907,227.02273220703125L1121.4206841503906,287.68184220703125ZM1038.8653841503906,103.85001920703125C1037.9123241503908,103.96592720703126,1037.3564741503906,104.50683770703125,1037.2373341503908,105.43410940703124L1037.2373341503908,117.37274620703126C1036.9593841503906,118.30001820703126,1036.2842741503905,118.84092920703125,1035.2121841503906,118.95683620703124L1006.6216741503906,118.95683620703124C1005.6686141503907,119.22728920703125,1005.1126441503907,119.88411120703125,1004.9935641503906,120.92728820703125L1004.9935641503906,143.99319420703125C1005.1126441503907,145.03637720703125,1005.6686141503907,145.73183420703126,1006.6216741503906,145.96365020703126L1035.2121841503906,145.96365020703126C1036.2843341503906,146.07955920703125,1036.9991141503906,146.62046820703125,1037.2373341503908,147.54774120703127L1037.2373341503908,161.07046520703125C1036.9593841503906,163.58182920703126,1036.2842741503905,166.09318520703124,1035.2121841503906,168.60455320703124L1012.7367841503906,221.88410220703125C1011.5058241503906,224.27955220703126,1009.4806241503907,225.47729220703127,1006.6216741503906,225.47729220703127L1004.9935641503906,225.47729220703127C1004.0404941503906,225.59319220703125,1003.4845841503907,226.13409220703124,1003.3654441503907,227.06138220703124L1003.3654441503907,248.54320220703124C1003.4845841503907,249.58638220703125,1004.0404941503906,250.28184220703125,1004.9935641503906,250.51364220703124L1013.9678041503906,250.51364220703124C1019.6858841503906,250.39775220703126,1023.7759741503907,248.00227220703124,1026.2378841503905,243.36592220703125L1034.4179341503905,225.47729220703127C1035.4900841503907,224.66592220703126,1036.4430841503906,224.66592220703126,1037.2770041503907,225.47729220703127L1037.2770041503907,261.64093220703126C1036.6019641503906,264.42274220703126,1034.9739041503906,266.00683220703127,1032.3927941503907,266.39319220703123L1022.1875341503907,266.39319220703123C1021.2345241503906,266.50909220703124,1020.6785541503906,267.05000220703124,1020.5594741503907,267.97728220703124L1020.5594741503907,287.64319220703123C1020.6785541503906,288.8409222070312,1021.2345241503906,289.49774220703125,1022.1875341503907,289.61365220703124L1051.2148741503906,289.61365220703124C1060.1891741503905,289.22728220703124,1064.9542541503906,284.7068222070312,1065.5102241503905,276.09091220703124L1065.5102241503905,186.84091220703124C1065.6293041503907,185.91362720703125,1066.1852141503905,185.37272620703123,1067.1382741503908,185.25682020703124L1071.2283041503906,185.25682020703124C1072.1813041503906,184.98636620703127,1072.7373341503908,184.32953620703125,1072.8564141503907,183.28636920703127L1072.8564141503907,160.29774520703126C1072.7373341503908,159.37047220703124,1072.1813041503906,158.82956720703126,1071.2283041503906,158.71365320703126L1067.1382741503908,158.71365320703126C1066.1852141503905,158.44319920703126,1065.6293041503907,157.78638120703124,1065.5102241503905,156.74319820703124L1065.5102241503905,147.54774820703125C1065.6293041503907,146.62047620703126,1066.1852141503905,146.07956720703126,1067.1382741503908,145.96365720703125L1071.2283041503906,145.96365720703125C1072.1813041503906,145.69320320703125,1072.7373341503908,145.03638420703123,1072.8564141503907,143.99320220703126L1072.8564141503907,120.54093020703125C1072.7373341503908,119.61365920703125,1072.1813041503906,119.07274820703125,1071.2283041503906,118.95684020703125L1067.1382741503908,118.95684020703125C1066.1852141503905,118.84093320703124,1065.6293041503907,118.30002120703125,1065.5102241503905,117.37275020703125L1065.5102241503905,105.43410940703124C1065.3910841503907,104.50683770703125,1064.8351741503907,103.96592720703126,1063.8821141503906,103.85001920703125L1038.8653841503906,103.85001920703125ZM1116.4966741503906,151.14092220703125C1114.9877041503905,151.02500920703125,1114.1935741503908,150.21365020703126,1114.0347641503906,148.74546420703126L1114.0347641503906,133.25229120703125C1114.1538341503906,131.51365120703124,1114.9877041503905,130.58637820703126,1116.4966741503906,130.47047420703126L1161.8445741503906,130.47047420703126C1163.3534841503906,130.58638620703124,1164.3064841503906,131.51365820703126,1164.7035841503907,133.25229120703125L1164.7035841503907,148.74547220703124C1164.3064841503906,150.21365020703126,1163.3534841503906,150.98638120703126,1161.8445741503906,151.14093020703126L1116.4966741503906,151.14092220703125ZM1152.4732941503908,267.20456220703124C1150.8451841503907,267.08865220703126,1149.8921841503907,266.27728220703125,1149.6142241503908,264.80911220703126L1149.6142241503908,251.28637220703126C1149.8921841503907,249.81819220703125,1150.8451841503907,248.89093220703126,1152.4732941503908,248.50456220703126L1165.1404741503907,248.50456220703126C1166.4905741503908,248.89091220703125,1167.3244341503905,249.81819220703125,1167.6023841503907,251.28637220703126L1167.6023841503907,264.80911220703126C1167.3244341503905,266.27730220703125,1166.5303041503907,267.05002220703125,1165.1404741503907,267.20456220703124L1152.4732941503908,267.20456220703124Z" fill="#5A81E5" fill-opacity="1"/></svg>